<?xml version="1.0"?>
<svg xmlns:rdf="http://www.w3.org/1999/02/22-rdf-syntax-ns#" xmlns="http://www.w3.org/2000/svg" xmlns:cc="http://web.resource.org/cc/" xmlns:dc="http://purl.org/dc/elements/1.1/" xmlns:svg="http://www.w3.org/2000/svg" viewBox="0 0 468 468" version="1.0">
  <g transform="translate(0 468) scale(.078 -.078)">
    <path d="m3165 5889c-55-4-134-13-175-20s-142-12-224-11h-148l6-26c3-15 13-67 22-117 42-242 68-381 84-455 14-66 13-130-2-130-7-1-31-9-53-20s-44-19-48-20c-5 0-32-11-60-24-29-13-92-41-142-62-49-20-92-40-95-43-3-4-21-14-40-23-118-55-171-78-180-78-5 0-10-4-10-10 0-5-6-10-14-10-10 0-228-153-282-198-6-5-35-27-65-48s-56-41-59-44-27-23-55-45c-27-22-51-43-53-47-2-5-9-8-15-8-14-1-35-29-179-239-59-86-108-164-108-173s-4-19-9-22-12-23-16-43c-4-21-10-42-14-48-23-30-30-106-21-230 6-72 12-143 15-160 5-30 53-136 65-145 4-3 19-24 34-47 14-24 30-43 35-43s31-21 58-46c55-52 205-154 228-154 8 0 15-4 15-8 0-16 118-60 225-83 28-5 73-19 100-29 28-11 104-33 170-50s148-40 181-50c34-11 71-20 82-20 12 0 23-4 26-9s34-12 68-16c35-4 68-11 73-15 6-4 46-15 90-24 44-10 88-22 97-27 10-5 25-9 34-9 15 0 16-16 10-167-3-93-9-385-12-649l-7-482-88 45c-49 25-89 50-89 54 0 5-5 9-11 9s-40 13-76 30c-35 16-75 33-88 36-12 3-63 49-113 102-125 135-140 154-203 256-42 68-61 90-74 88-10-2-52-20-94-39-42-20-85-39-96-44-20-8-113-49-170-74-16-8-70-30-120-50-49-20-94-40-100-45-5-4-53-30-105-58-170-89-184-99-227-153-38-49-43-62-51-130-10-92-2-135 40-218 24-47 48-75 87-105 80-61 144-103 172-111 13-4 26-11 29-14 4-5 69-36 195-92 45-20 235-69 305-78 41-6 107-17 146-25 104-22 193-28 464-30l245-2-1-35c-16-644-16-669 0-669 8 0 49 16 92 35 47 22 92 35 118 35 56 0 355 36 363 43 3 3 0 79-6 169s-14 258-17 374l-7 212 49 25c27 13 63 32 79 41 17 9 35 16 42 16 6 0 13 3 15 8 3 7 59 38 193 106 33 17 62 34 63 38 2 5 10 8 18 8s14 4 14 9 14 12 30 16c17 4 30 10 30 15s9 12 21 15c32 10 331 213 346 235 8 11 20 20 28 20 7 0 16 8 19 18s20 23 37 29c17 7 33 21 36 32 3 12 12 21 19 21 8 0 14 6 14 14s10 16 23 20c23 5 127 101 127 117 0 5 7 9 15 9s15 4 15 8 29 39 65 77c36 37 65 72 65 77 0 9 65 91 102 130 28 28 73 138 124 296 19 62 9 343-14 390-9 17-20 32-24 32-5 0-8 5-8 10 0 23-86 139-107 145-13 3-23 10-23 15s-11 20-25 34-25 28-25 31c0 9-43 44-53 45-5 0-15 7-23 15-9 8-24 15-35 15-10 0-19 7-19 15s-7 15-15 15-15 4-15 10c0 5-11 12-25 16-14 3-25 10-25 15s-6 9-14 9c-7 0-19 7-26 15s-23 15-36 15c-12 0-25 4-28 9-3 4-24 11-46 15-23 3-49 10-58 16-9 5-35 13-57 19-22 5-60 15-85 21s-52 15-60 19c-9 5-31 12-50 16s-66 17-105 30c-38 12-90 26-115 30-24 4-54 14-65 21s-31 13-45 13c-54 1-65 2-70 9-8 11-102 44-140 50-19 2-38 9-41 13-3 5-31 18-63 30-108 37-101 23-115 242-6 105-14 210-16 232s0 59 6 82c5 24 11 87 14 140 7 153 14 241 27 336 11 80 14 87 35 87 56 0 181-77 269-164 22-23 51-50 65-61 13-12 53-47 89-79 74-66 80-67 184-17 90 43 197 91 203 91 3 0 38 15 77 34 113 54 184 86 191 86 3 0 38 16 78 35 52 25 95 57 150 111 71 69 77 79 77 116 0 71-27 144-66 175-19 15-54 46-79 68-24 22-65 51-91 65s-77 42-113 63c-36 20-74 37-85 37-18 0-53 7-211 45-213 51-189 49-463 39-141-5-273-7-292-4l-35 5-2 70c-1 39 5 102 12 140 8 39 17 133 20 210 4 77 11 144 16 150 5 5 9 15 9 22 0 14-4 14-155 2zm-395-1236c1-65 4-230 8-368 4-137 7-320 7-405v-155l-35 3c-19 2-49 15-67 28-17 13-39 24-47 24-9 0-16 4-16 9 0 4-30 22-67 39-38 16-78 40-90 51-12 12-27 21-32 21s-20 13-33 30c-13 16-35 44-50 62s-28 38-28 44-7 17-15 24-15 22-15 34-5 27-12 34c-6 6-13 56-16 117-5 104-4 106 31 178 19 39 44 92 55 117 14 33 42 64 96 109 72 59 83 64 184 91 157 41 142 50 142-87zm570-2074c25-7 47-15 50-18 8-10 80-41 94-41 12 0 29-13 91-68 11-10 38-31 60-47 57-41 61-45 110-94 25-25 47-53 51-63 3-10 10-18 15-18s9-5 9-11 11-25 25-43c20-26 26-46 27-92 1-32-4-69-10-81-7-12-12-37-12-55 0-55-29-119-88-198-69-93-93-120-109-120-7 0-13-4-13-10 0-5-7-10-15-10s-24-9-35-20-24-20-28-20c-14 0-62-25-62-32 0-4-16-10-35-14-19-3-35-10-35-14s-16-11-35-14c-19-4-35-11-35-16 0-6-20-10-43-10h-44l-7 408c-4 224-11 469-15 545-5 75-7 147-4 158 6 22 6 22 93-2z"/>
  </g>
  <metadata>
    <rdf:RDF>
      <cc:Work>
        <dc:format>image/svg+xml</dc:format>
        <dc:type rdf:resource="http://purl.org/dc/dcmitype/StillImage"/>
        <cc:license rdf:resource="http://creativecommons.org/licenses/publicdomain/"/>
        <dc:publisher>
          <cc:Agent rdf:about="http://openclipart.org/">
            <dc:title>Openclipart</dc:title>
          </cc:Agent>
        </dc:publisher>
        <dc:title>Money 1</dc:title>
        <dc:date>2012-02-06T15:11:10</dc:date>
        <dc:description>A Dollar Sign</dc:description>
        <dc:source>http://openclipart.org/detail/167776/money-1-by-dripsandcastle</dc:source>
        <dc:creator>
          <cc:Agent>
            <dc:title>dripsandcastle</dc:title>
          </cc:Agent>
        </dc:creator>
        <dc:subject>
          <rdf:Bag>
            <rdf:li>clip art</rdf:li>
            <rdf:li>clipart</rdf:li>
            <rdf:li>dollar</rdf:li>
            <rdf:li>dollar sign</rdf:li>
            <rdf:li>money</rdf:li>
          </rdf:Bag>
        </dc:subject>
      </cc:Work>
      <cc:License rdf:about="http://creativecommons.org/licenses/publicdomain/">
        <cc:permits rdf:resource="http://creativecommons.org/ns#Reproduction"/>
        <cc:permits rdf:resource="http://creativecommons.org/ns#Distribution"/>
        <cc:permits rdf:resource="http://creativecommons.org/ns#DerivativeWorks"/>
      </cc:License>
    </rdf:RDF>
  </metadata>
</svg>
